<svg xmlns="http://www.w3.org/2000/svg"  viewBox="0 0 48 48" width="100px" height="100px"><linearGradient id="SVGID_1_" x1="35.786" x2="14.298" y1="11.229" y2="32.717" gradientUnits="userSpaceOnUse"><stop offset="0" stop-color="#6560fe"/><stop offset=".033" stop-color="#6f6afe"/><stop offset=".197" stop-color="#9a97fe"/><stop offset=".362" stop-color="#bfbdff"/><stop offset=".525" stop-color="#dbdaff"/><stop offset=".687" stop-color="#efeeff"/><stop offset=".846" stop-color="#fbfbff"/><stop offset="1" stop-color="#fff"/></linearGradient><path fill="url(#SVGID_1_)" d="M37.313,30.175c-0.982-1.213-1.965-2.345-1.965-4.77V17.4c0-3.396,0.246-6.549-2.292-8.894	C31.009,6.647,27.734,6,25.196,6c-4.994,0-10.479,1.86-11.625,7.924c-0.164,0.647,0.327,0.97,0.737,1.051l5.076,0.485	c0.491,0,0.819-0.485,0.982-0.97c0.409-2.102,2.21-3.153,4.175-3.153c1.064,0,2.292,0.404,2.947,1.374	c0.737,1.051,0.573,2.507,0.573,3.719v0.728c-3.029,0.323-6.959,0.566-9.824,1.779c-3.275,1.375-5.567,4.204-5.567,8.409	c0,5.336,3.438,8.005,7.777,8.005c3.684,0,5.731-0.889,8.596-3.8c0.982,1.375,1.31,2.021,3.029,3.477	c0.164,0.081,0.327,0.162,0.491,0.162c0.246,0,0.491-0.081,0.737-0.243v0.081c1.064-0.889,2.947-2.587,4.011-3.477	C37.722,31.226,37.64,30.66,37.313,30.175z M26.718,27.65c-0.717,1.274-1.935,2.053-3.154,2.053c-1.72,0-2.796-1.274-2.796-3.257	c0-3.327,2.652-4.319,5.519-4.531h1.29v0.991C27.578,24.677,27.65,26.092,26.718,27.65z"/><path fill="#8251fe" d="M42.022,35.018c-1.382,0-3.023,0.345-4.232,1.209c-0.345,0.259-0.345,0.605,0.086,0.605	c1.382-0.173,4.491-0.605,5.095,0.173c0.518,0.691-0.605,3.627-1.123,5.009c-0.173,0.432,0.173,0.518,0.518,0.259	c2.332-1.986,2.936-6.045,2.505-6.564C44.613,35.277,43.404,35.018,42.022,35.018z"/><path fill="#8251fe" d="M5.404,35.795c-0.259,0-0.432,0.432-0.086,0.691C10.499,41.15,17.409,44,25.009,44	c5.441,0,11.745-1.727,16.15-4.923c0.691-0.518,0.086-1.382-0.605-1.036c-4.923,2.073-10.191,3.109-15.027,3.109	c-7.168,0-14.077-1.986-19.691-5.182C5.663,35.795,5.49,35.795,5.404,35.795z"/><path fill="none" stroke="#8251fe" stroke-linecap="round" stroke-linejoin="round" stroke-miterlimit="10" stroke-width="3" d="M15.143,33.281c1.389,1.379,3.338,2.069,5.517,2.069c3.638,0,5.66-0.889,8.49-3.8	c0.97,1.375,1.294,2.021,2.992,3.477c0.162,0.081,0.323,0.162,0.485,0.162c0.243,0,0.485-0.081,0.728-0.243v0.081	c1.051-0.889,2.911-2.587,3.962-3.477c0.404-0.323,0.323-0.889,0-1.375c-0.97-1.213-1.941-2.345-1.941-4.77v-2.916"/><path fill="none" stroke="#8251fe" stroke-linecap="round" stroke-linejoin="round" stroke-miterlimit="10" stroke-width="3" d="M35.377,16.872c0.016-3.194,0.111-6.143-2.265-8.366C31.09,6.647,27.856,6,25.35,6	C20.417,6,15,7.86,13.868,13.924c-0.162,0.647,0.323,0.97,0.728,1.051l5.013,0.485c0.485,0,0.808-0.485,0.97-0.97	c0.404-2.102,2.183-3.153,4.124-3.153c1.051,0,2.264,0.404,2.911,1.374c0.728,1.051,0.566,2.507,0.566,3.719v0.728	c-2.992,0.323-6.873,0.566-9.702,1.779c-3.234,1.375-5.498,4.204-5.498,8.409"/><path fill="none" stroke="#8251fe" stroke-linecap="round" stroke-linejoin="round" stroke-miterlimit="10" stroke-width="3" d="M26.852,27.65c-0.708,1.274-1.911,2.053-3.115,2.053c-1.699,0-2.761-1.274-2.761-3.257	c0-3.327,2.619-4.319,5.451-4.531h1.274v0.991C27.702,24.677,27.773,26.092,26.852,27.65z"/></svg>