<svg xmlns="http://www.w3.org/2000/svg" enable-background="new 0 0 24 24" viewBox="0 0 24 24" id="Dazn"><path d="M23.25,24H0.75C0.336,24,0,23.664,0,23.25v-9.293c0-0.251,0.125-0.485,0.334-0.624L2.333,12l-1.999-1.333C0.125,10.528,0,10.294,0,10.043V0.75C0,0.336,0.336,0,0.75,0h22.5C23.664,0,24,0.336,24,0.75v9.293c0,0.251-0.125,0.485-0.334,0.624L21.667,12l1.999,1.333C23.875,13.472,24,13.706,24,13.957v9.293C24,23.664,23.664,24,23.25,24z M1.5,22.5h21v-8.142l-2.601-1.734c-0.208-0.139-0.334-0.373-0.334-0.624s0.125-0.485,0.334-0.624L22.5,9.642V1.5h-21v8.142l2.601,1.734C4.309,11.515,4.435,11.749,4.435,12s-0.125,0.485-0.334,0.624L1.5,14.358V22.5z" fill="#c7e400" class="color000000 svgShape"></path><path d="M8.294 11H6.742c-.414 0-.75-.336-.75-.75v-5.5C5.992 4.336 6.328 4 6.742 4h1.552c1.93 0 3.5 1.57 3.5 3.5S10.224 11 8.294 11zM7.492 9.5h.802c1.103 0 2-.897 2-2s-.897-2-2-2H7.492V9.5zM12.956 11c-.082 0-.165-.013-.246-.042-.392-.136-.598-.563-.462-.955l1.912-5.5C14.264 4.202 14.548 4 14.868 4h.478c.319 0 .604.202.708.504l1.912 5.5c.136.391-.071.818-.462.955-.393.136-.818-.071-.955-.462l-1.442-4.149-1.442 4.149C13.557 10.806 13.267 11 12.956 11z" fill="#c7e400" class="color000000 svgShape"></path><path d="M16.541 9.167h-2.868c-.414 0-.75-.336-.75-.75s.336-.75.75-.75h2.868c.414 0 .75.336.75.75S16.955 9.167 16.541 9.167zM10.564 20H6.742c-.28 0-.537-.156-.666-.404s-.109-.548.052-.777l3.025-4.304L6.737 14.5c-.414-.002-.748-.34-.745-.755C5.995 13.333 6.33 13 6.742 13c.001 0 .003 0 .005 0l3.849.024c.279.002.534.158.662.406s.107.547-.053.775L8.186 18.5h2.378c.414 0 .75.336.75.75S10.979 20 10.564 20zM17.258 20c-.226 0-.446-.103-.591-.288l-2.962-3.787v3.324c0 .414-.336.75-.75.75s-.75-.336-.75-.75v-5.5c0-.32.203-.605.505-.709.306-.104.639-.004.835.247l2.962 3.787V13.75c0-.414.336-.75.75-.75s.75.336.75.75v5.5c0 .32-.203.605-.505.709C17.422 19.987 17.339 20 17.258 20z" fill="#c7e400" class="color000000 svgShape"></path></svg>