<svg xmlns="http://www.w3.org/2000/svg"  viewBox="0 0 48 48" width="500px" height="500px"><linearGradient id="SVGID_1_" x1="39.682" x2="8.318" y1="8.738" y2="40.102" gradientUnits="userSpaceOnUse"><stop offset=".014" stop-color="#fe6d60"/><stop offset=".046" stop-color="#fe766a"/><stop offset=".208" stop-color="#fea097"/><stop offset=".37" stop-color="#ffc2bd"/><stop offset=".532" stop-color="#ffddda"/><stop offset=".692" stop-color="#fff0ee"/><stop offset=".849" stop-color="#fffbfb"/><stop offset="1" stop-color="#fff"/></linearGradient><path fill="url(#SVGID_1_)" d="M34.5,21.658l-9.913,7.607c-0.348,0.267-0.825,0.266-1.172-0.002L13.5,21.604v16.443c0,0.552-0.437,1-0.976,1 H8.417c-1.565,0-2.833-1.3-2.833-2.904V13.308c0-2.406,1.903-4.356,4.25-4.356l0,0c0.961,0,1.853,0.321,2.564,0.871L24,18.782 l11.602-8.958c0.71-0.543,1.611-0.871,2.564-0.871l0,0c2.347,0,4.25,1.95,4.25,4.356v22.836c0,1.604-1.269,2.904-2.833,2.904 h-4.108c-0.539,0-0.976-0.448-0.976-1V21.658z"/><g><line x1="17.19" x2="5.796" y1="24.293" y2="15.706" fill="none" stroke="#e02f24" stroke-linecap="round" stroke-linejoin="round" stroke-miterlimit="10" stroke-width="3"/><polyline fill="none" stroke="#e02f24" stroke-linecap="round" stroke-linejoin="round" stroke-miterlimit="10" stroke-width="3" points="42.054,15.819 24,29.425 21.54,27.571"/><path fill="none" stroke="#e02f24" stroke-linecap="round" stroke-linejoin="round" stroke-miterlimit="10" stroke-width="3" d="M42.417,24.574v11.123c0,1.565-1.268,2.833-2.833,2.833H34.5V11.537"/><path fill="none" stroke="#e02f24" stroke-linecap="round" stroke-linejoin="round" stroke-miterlimit="10" stroke-width="3" d="M5.583,30.213V13.417c0-2.347,1.903-4.25,4.25-4.25l0,0c0.961,0,1.853,0.313,2.564,0.85L24,18.757 l11.602-8.741c0.71-0.53,1.611-0.85,2.564-0.85l0,0c2.347,0,4.25,1.903,4.25,4.25v6.009"/><path fill="none" stroke="#e02f24" stroke-linecap="round" stroke-linejoin="round" stroke-miterlimit="10" stroke-width="3" d="M13.5,11.69v26.841H8.417c-1.565,0-2.833-1.268-2.833-2.833"/></g></svg>