<svg xmlns="http://www.w3.org/2000/svg"  viewBox="0 0 48 48" width="100px" height="100px"><linearGradient id="SVGID_1_" x1="39.13" x2="8.87" y1="8.87" y2="39.13" gradientUnits="userSpaceOnUse"><stop offset=".014" stop-color="#fe6d60"/><stop offset=".046" stop-color="#fe766a"/><stop offset=".208" stop-color="#fea097"/><stop offset=".37" stop-color="#ffc2bd"/><stop offset=".532" stop-color="#ffddda"/><stop offset=".692" stop-color="#fff0ee"/><stop offset=".849" stop-color="#fffbfb"/><stop offset="1" stop-color="#fff"/></linearGradient><path fill="url(#SVGID_1_)" d="M11.707,40.5c-2.004,0-3.644-1.698-3.644-3.773V11.273c0-2.075,1.64-3.773,3.644-3.773h24.587	c2.004,0,3.644,1.698,3.644,3.773v25.455c0,2.075-1.64,3.773-3.644,3.773H11.707z"/><path fill="none" stroke="#e02f24" stroke-linecap="round" stroke-miterlimit="10" stroke-width="3" d="M33.596,7.5h3.132c2.075,0,3.773,1.698,3.773,3.773v25.455c0,2.075-1.698,3.773-3.773,3.773H20.064"/><path fill="none" stroke="#e02f24" stroke-linecap="round" stroke-miterlimit="10" stroke-width="3" d="M14,40.5h-2.727c-2.075,0-3.773-1.698-3.773-3.773V11.273C7.5,9.198,9.198,7.5,11.273,7.5h15.429"/><path fill="#e02f24" d="M31,12.99v19.99l-5-15.1v-4.89c0-0.547,0.443-0.99,0.99-0.99h3.02C30.557,12,31,12.443,31,12.99z"/><path fill="#e02f24" d="M22,30.12l0,4.344c0,0.521-0.409,0.946-0.929,0.983c-0.018,0.001-0.035,0.003-0.053,0.004	C18.842,35.612,17,33.878,17,31.696c0-6.135,0-16.676,0-16.676L22,30.12z"/><path fill="#e02f24" d="M29.316,35.702c-0.921-0.132-1.892-0.229-2.899-0.289c-0.391-0.023-0.736-0.27-0.874-0.637l-8.042-21.438 C17.259,12.69,17.737,12,18.429,12h2.885c0.413,0,0.782,0.256,0.927,0.643l8.145,21.735C30.651,35.085,30.064,35.809,29.316,35.702 z"/></svg>