<svg xmlns="http://www.w3.org/2000/svg"  viewBox="0 0 48 48" width="500px" height="500px"><linearGradient id="SVGID_1_" x1="41.924" x2="13.061" y1="11.061" y2="39.924" gradientUnits="userSpaceOnUse"><stop offset="0" stop-color="#60affe"/><stop offset=".033" stop-color="#6ab4fe"/><stop offset=".197" stop-color="#97cbfe"/><stop offset=".362" stop-color="#bddeff"/><stop offset=".525" stop-color="#daecff"/><stop offset=".687" stop-color="#eef7ff"/><stop offset=".846" stop-color="#fbfdff"/><stop offset="1" stop-color="#fff"/></linearGradient><path fill="url(#SVGID_1_)" d="M40.529,23H39V8.941C39,7.869,38.131,7,37.059,7H17.441C16.369,7,15.5,7.869,15.5,8.941v7.309H8.635	C7.18,16.25,6,17.43,6,18.885v12.48C6,32.82,7.18,34,8.635,34H13v5.059C13,40.131,13.869,41,14.941,41h25.588	c1.072,0,1.941-0.869,1.941-1.941V24.941C42.471,23.869,41.602,23,40.529,23z"/><path fill="none" stroke="#2e9bfe" stroke-linecap="round" stroke-linejoin="round" stroke-miterlimit="10" stroke-width="3" d="M39.5,11.5h-24v-3c0-1.105,0.895-2,2-2h20c1.105,0,2,0.895,2,2V11.5z"/><polyline fill="none" stroke="#2e9bfe" stroke-linecap="round" stroke-linejoin="round" stroke-miterlimit="10" stroke-width="3" points="39.5,18.5 31.5,18.5 31.5,11.5 39.5,11.5 39.5,18.5"/><path fill="none" stroke="#2e9bfe" stroke-linecap="round" stroke-linejoin="round" stroke-miterlimit="10" stroke-width="3" d="M42.5,35.596V39.5c0,1.105-0.895,2-2,2h-26c-1.105,0-2-0.895-2-2v-5"/><path fill="none" stroke="#2e9bfe" stroke-linecap="round" stroke-linejoin="round" stroke-miterlimit="10" stroke-width="3" d="M40.5,22.5c1.105,0,2,0.895,2,2v5.606"/><polyline fill="none" stroke="#2e9bfe" stroke-linecap="round" stroke-linejoin="round" stroke-miterlimit="10" stroke-width="3" points="23.5,11.5 31.5,11.5 31.5,18.5"/><polyline fill="none" stroke="#2e9bfe" stroke-linecap="round" stroke-linejoin="round" stroke-miterlimit="10" stroke-width="3" points="15.5,11.5 23.5,11.5 23.5,18.5"/><polyline fill="none" stroke="#2e9bfe" stroke-linecap="round" stroke-linejoin="round" stroke-miterlimit="10" stroke-width="3" points="37.5,25.5 31.5,25.5 31.5,18.5 39.5,18.5 39.5,23.511"/><polyline fill="none" stroke="#2e9bfe" stroke-linecap="round" stroke-linejoin="round" stroke-miterlimit="10" stroke-width="3" points="27.266,18.5 31.5,18.5 31.5,25.5"/><line x1="27.713" x2="31.5" y1="25.5" y2="25.5" fill="none" stroke="#2e9bfe" stroke-linecap="round" stroke-linejoin="round" stroke-miterlimit="10" stroke-width="3"/><line x1="23.617" x2="41.312" y1="29.541" y2="40.747" fill="none" stroke="#2e9bfe" stroke-linecap="round" stroke-linejoin="round" stroke-miterlimit="10" stroke-width="3"/><line x1="42.5" x2="28.033" y1="22.5" y2="31.662" fill="none" stroke="#2e9bfe" stroke-miterlimit="10" stroke-width="3"/><path fill="none" stroke="#2e9bfe" stroke-linecap="round" stroke-linejoin="round" stroke-miterlimit="10" stroke-width="3" d="M13.383,16.5h7.402c1.499,0,2.715,1.215,2.715,2.715v12.571c0,1.499-1.215,2.715-2.715,2.715h-1.36"/><path fill="none" stroke="#2e9bfe" stroke-linecap="round" stroke-linejoin="round" stroke-miterlimit="10" stroke-width="3" d="M14.5,34.5H8.215c-1.499,0-2.715-1.215-2.715-2.715V19.215c0-1.499,1.215-2.715,2.715-2.715"/><path fill="#2e9bfe" d="M14.5,20.175c-2.949,0-5.008,2.19-5.008,5.325s2.059,5.325,5.008,5.325s5.008-2.189,5.008-5.324	C19.508,22.365,17.449,20.175,14.5,20.175z M14.5,28.82c-1.553,0-2.637-1.365-2.637-3.319c0-1.955,1.084-3.319,2.637-3.319	c1.553,0,2.638,1.365,2.638,3.319C17.138,27.455,16.053,28.82,14.5,28.82z"/></svg>