<svg xmlns="http://www.w3.org/2000/svg"  viewBox="0 0 48 48" width="500px" height="500px"><linearGradient id="SVGID_1_" x1="36.516" x2="11.484" y1="13.93" y2="38.962" gradientUnits="userSpaceOnUse"><stop offset="0" stop-color="#fee460"/><stop offset=".033" stop-color="#fee66a"/><stop offset=".197" stop-color="#feed97"/><stop offset=".362" stop-color="#fff4bd"/><stop offset=".525" stop-color="#fff9da"/><stop offset=".687" stop-color="#fffcee"/><stop offset=".846" stop-color="#fffefb"/><stop offset="1" stop-color="#fff"/></linearGradient><path fill="url(#SVGID_1_)" d="M45,24.324c0-2.546-2.064-4.61-4.61-4.61c-1.181,0-2.248,0.458-3.064,1.188	c-3.281-2.61-8.028-4.261-13.326-4.261s-10.045,1.651-13.326,4.261c-0.816-0.73-1.883-1.188-3.064-1.188	c-2.546,0-4.61,2.064-4.61,4.61c0,2.024,1.313,3.725,3.128,4.344c-0.023,0.258-0.055,0.515-0.055,0.778	c0,7.072,8.026,12.805,17.927,12.805s17.927-5.732,17.927-12.805c0-0.262-0.033-0.519-0.055-0.778	C43.687,28.048,45,26.348,45,24.324z"/><path fill="#fac400" d="M36.5,11C34.57,11,33,9.43,33,7.5S34.57,4,36.5,4S40,5.57,40,7.5S38.43,11,36.5,11z"/><path fill="none" stroke="#fac400" stroke-linecap="round" stroke-linejoin="round" stroke-width="3" d="M38.719,35.5c1.14-1.66,1.781-3.526,1.781-5.5c0-0.256-0.032-0.507-0.054-0.759	C42.218,28.636,43.5,26.976,43.5,25c0-2.485-2.015-4.5-4.5-4.5c-1.153,0-2.194,0.447-2.991,1.16C32.806,19.112,28.172,17.5,23,17.5	c-1.557,0-3.065,0.146-4.5,0.42"/><path fill="none" stroke="#fac400" stroke-linecap="round" stroke-linejoin="round" stroke-width="3" d="M12.5,20.014c-0.909,0.49-1.749,1.042-2.509,1.646C9.194,20.947,8.153,20.5,7,20.5c-2.485,0-4.5,2.015-4.5,4.5	c0,1.976,1.282,3.636,3.054,4.241C5.532,29.493,5.5,29.744,5.5,30c0,6.904,7.835,12.5,17.5,12.5c3.194,0,6.188-0.611,8.766-1.679"/><polyline fill="none" stroke="#fac400" stroke-linejoin="round" stroke-width="3" points="23.5,17.5 26,5.5 36.5,7.5"/><circle cx="15.5" cy="27.5" r="3" fill="#fac400"/><circle cx="30.5" cy="27.5" r="3" fill="#fac400"/><path fill="none" stroke="#fac400" stroke-linecap="round" stroke-linejoin="round" stroke-width="3" d="M29.5,35.5c0,0-2,1.999-6.5,1.999S16.5,35.5,16.5,35.5"/></svg>