<svg xmlns="http://www.w3.org/2000/svg"  viewBox="0 0 48 48" width="500px" height="500px"><linearGradient id="SVGID_1_" x1="38.852" x2="7.586" y1="7.761" y2="39.027" gradientUnits="userSpaceOnUse"><stop offset="0" stop-color="#6560fe"/><stop offset=".033" stop-color="#6f6afe"/><stop offset=".197" stop-color="#9a97fe"/><stop offset=".362" stop-color="#bfbdff"/><stop offset=".525" stop-color="#dbdaff"/><stop offset=".687" stop-color="#efeeff"/><stop offset=".846" stop-color="#fbfbff"/><stop offset="1" stop-color="#fff"/></linearGradient><path fill="url(#SVGID_1_)" d="M38.495,8.675c1.659,0,3.005,1.307,3.005,2.919v14.892c0,1.412-0.526,2.776-1.482,3.839l-7.502,8.351	c-0.571,0.635-1.396,1-2.264,1H24.7l-4.35,4.402c-0.378,0.382-0.899,0.598-1.444,0.598h-1.082c-0.569,0-1.029-0.448-1.029-1v-4	H9.505c-1.659,0-3.005-1.307-3.005-2.919V19.234c0-0.629,0.211-1.241,0.6-1.744l5.432-7.946c0.371-0.543,0.998-0.869,1.669-0.869	H38.495z"/><path fill="none" stroke="#8251fe" stroke-linecap="round" stroke-linejoin="round" stroke-width="3" d="M6.5,27.213V18.4c0-0.649,0.211-1.281,0.6-1.8l6.026-7.925"/><path fill="none" stroke="#8251fe" stroke-linecap="round" stroke-linejoin="round" stroke-width="3" d="M41.5,26.18c0,1.493-0.556,2.932-1.56,4.036l-7.547,8.302c-0.569,0.625-1.375,0.982-2.22,0.982H24.5	l-4.414,4.414c-0.375,0.375-0.884,0.586-1.414,0.586H16.5v-5h-7c-1.657,0-3-1.343-3-3v-2.84"/><path fill="none" stroke="#8251fe" stroke-linecap="round" stroke-linejoin="round" stroke-width="3" d="M15.5,7.5h23c1.657,0,3,1.343,3,3v7.074"/><line x1="31.5" x2="31.5" y1="16.5" y2="24.5" fill="none" stroke="#8251fe" stroke-linecap="round" stroke-linejoin="round" stroke-width="3"/><line x1="23.5" x2="23.5" y1="16.5" y2="24.5" fill="none" stroke="#8251fe" stroke-linecap="round" stroke-linejoin="round" stroke-width="3"/><path fill="none" stroke="#8251fe" stroke-linecap="round" stroke-linejoin="round" stroke-width="3" d="M31.5,33.5h-6l-5,4v-4h-7c-0.552,0-1-0.448-1-1v-22c0-1.657,1.343-3,3-3"/></svg>