<?xml version="1.0" encoding="iso-8859-1"?>
<!-- Generator: Adobe Illustrator 27.2.0, SVG Export Plug-In . SVG Version: 6.00 Build 0)  -->
<svg version="1.1" id="Layer_1" xmlns="http://www.w3.org/2000/svg" xmlns:xlink="http://www.w3.org/1999/xlink" x="0px" y="0px"
	 viewBox="0 0 48 48" style="enable-background:new 0 0 48 48;" xml:space="preserve">
<style type="text/css">
	.st0{fill:url(#SVGID_1_);}
	.st1{fill:url(#SVGID_00000170959903724471941560000002347222721337022132_);}
	.st2{fill:url(#SVGID_00000140000568510807692370000007317019699261861507_);}
	.st3{fill:url(#SVGID_00000158024947479637359770000012730178552054699921_);}
	.st4{fill:url(#SVGID_00000034056740540292959910000013274947937461950851_);}
	.st5{fill:url(#SVGID_00000118362409365903863920000017677397162277294748_);}
	.st6{fill:url(#SVGID_00000110462372595207161130000003103836205024379282_);}
	.st7{fill:url(#SVGID_00000175320972535646275410000003938239739411029927_);}
	.st8{fill:url(#SVGID_00000004525141498932068880000007014880644382508941_);}
	.st9{fill:url(#SVGID_00000070796753171642061020000004533921089994252984_);}
	.st10{fill:none;stroke:#2E9BFE;stroke-width:3;stroke-linecap:round;stroke-linejoin:round;}
	.st11{fill:url(#SVGID_00000079471972672428297160000009686850897725143942_);}
	.st12{fill:none;stroke:#2E9BFE;stroke-width:3;stroke-linecap:round;}
	.st13{fill:url(#SVGID_00000022558843040650200190000009188843689008737923_);}
	.st14{fill:none;stroke:#8251FE;stroke-width:3;stroke-linecap:round;stroke-linejoin:round;}
	.st15{fill:url(#SVGID_00000072967760810118872970000017845821159738360199_);}
	.st16{fill:none;stroke:#FAC400;stroke-width:3;stroke-linecap:round;stroke-miterlimit:10;}
	.st17{fill:#FAC400;}
	.st18{fill:url(#SVGID_00000042017863903482248430000010030259002187210666_);}
	.st19{fill:none;stroke:#E02F24;stroke-width:3;stroke-linecap:round;stroke-linejoin:round;}
	.st20{fill:url(#SVGID_00000170266524970402765380000000065119654182007171_);}
	.st21{fill:none;stroke:#10E36C;stroke-width:3;stroke-linecap:round;stroke-linejoin:round;}
	.st22{fill:none;stroke:#10E36C;stroke-width:3;stroke-linecap:round;stroke-linejoin:round;stroke-miterlimit:10;}
	.st23{fill:url(#SVGID_00000156577785157422418610000001016242546759730852_);}
	.st24{fill:none;stroke:#E02F24;stroke-width:3;stroke-linecap:round;stroke-linejoin:round;stroke-miterlimit:10;}
	.st25{fill:url(#SVGID_00000031909884749018826130000001533884661614215823_);}
	.st26{fill:none;stroke:#FE7C12;stroke-width:3;stroke-linecap:round;stroke-linejoin:round;}
	.st27{fill:url(#SVGID_00000135654504694343580990000008420505508005687998_);}
	.st28{fill:none;stroke:#10CFE3;stroke-width:3;stroke-linecap:round;stroke-linejoin:round;stroke-miterlimit:10;}
	.st29{fill:#10CFE3;}
	.st30{fill:url(#SVGID_00000118386020003799327780000013208260298713649582_);}
	.st31{fill:#10E36C;}
	.st32{fill:url(#SVGID_00000157303626748518115180000012756068828027784362_);}
	.st33{fill:url(#SVGID_00000002374272274650278360000002049943364406217618_);}
	.st34{fill:none;stroke:#2E9BFE;stroke-width:3;stroke-linecap:round;stroke-linejoin:round;stroke-miterlimit:10;}
	.st35{fill:url(#SVGID_00000098930077043560532320000005531169409131458708_);}
	.st36{fill:url(#SVGID_00000145776253916880168750000010765409443424864688_);}
	.st37{fill:none;stroke:#FE7C12;stroke-width:3;stroke-linecap:round;stroke-linejoin:round;stroke-miterlimit:10;}
	.st38{fill:#FE7C12;}
	.st39{fill:url(#SVGID_00000147200272296859271690000012185196553628087476_);}
	.st40{fill:none;stroke:#8251FE;stroke-width:3;stroke-linecap:round;stroke-linejoin:round;stroke-miterlimit:10;}
	.st41{fill:#8251FE;}
	.st42{fill:url(#SVGID_00000121269725694941067480000018368856812606536875_);}
	.st43{fill:none;stroke:#8251FE;stroke-width:3;stroke-linecap:round;stroke-miterlimit:10;}
	.st44{fill:url(#SVGID_00000158738037623650995000000008574012297411295902_);}
	.st45{fill:url(#SVGID_00000149382576681259696840000002641370988779874996_);}
	.st46{fill:none;stroke:#FA2AAB;stroke-width:3;stroke-linecap:round;stroke-linejoin:round;}
	.st47{fill:url(#SVGID_00000055694451748963721600000017990438501121258631_);}
	.st48{fill:url(#SVGID_00000021822074601930971410000004349415953539022218_);}
	.st49{fill:#2E9BFE;}
	.st50{fill:url(#SVGID_00000101069411871257251820000016278633853768358564_);}
	.st51{fill:none;stroke:#E02F24;stroke-width:3;stroke-linecap:round;stroke-miterlimit:10;}
	.st52{fill:#E02F24;}
	.st53{fill:url(#SVGID_00000045580413079766094030000004263536219232955809_);}
	.st54{fill:url(#SVGID_00000142139605524706326980000015570600209211011247_);}
	.st55{fill:url(#SVGID_00000085208342565150107840000007386448423566373820_);}
	.st56{fill:url(#SVGID_00000128444668637142925490000001364584096738055845_);}
	.st57{fill:url(#SVGID_00000165206024996594179530000015228184959100667303_);}
	.st58{fill:url(#SVGID_00000165942032279314695270000002449255813791462546_);}
	.st59{fill:url(#SVGID_00000098186700494577081660000009581927778087944068_);}
	.st60{fill:none;stroke:#10CFE3;stroke-width:3;stroke-linecap:round;stroke-linejoin:round;}
	.st61{fill:url(#SVGID_00000165226599179134766600000011301328199995455933_);}
	.st62{fill:none;stroke:#8251FE;stroke-width:2.7;stroke-linecap:round;stroke-linejoin:round;stroke-miterlimit:10;}
	.st63{fill:url(#SVGID_00000145047565434072826270000005087937824432038024_);}
	.st64{fill:url(#SVGID_00000036953144787620319230000014150663187300971961_);}
	.st65{fill:none;stroke:#2E9BFE;stroke-width:3;stroke-linecap:round;stroke-miterlimit:10;}
	.st66{fill:none;stroke:#2E9BFE;stroke-width:3;stroke-linejoin:round;}
	.st67{fill:none;stroke:#2E9BFE;stroke-width:2.7;stroke-linecap:round;stroke-linejoin:round;stroke-miterlimit:10;}
	.st68{fill:url(#SVGID_00000013169525649050422530000011894556521388865938_);}
	.st69{fill:url(#SVGID_00000178200810937510306750000000424578862334937499_);}
	.st70{fill:url(#SVGID_00000181087750535664381520000012254379907938553765_);}
	.st71{fill:url(#SVGID_00000061430592120330522620000018271772943247906439_);}
	.st72{fill:url(#SVGID_00000080899057818995808110000016652529882331770265_);}
	.st73{fill:none;stroke:#FA2AAB;stroke-width:3;stroke-linecap:round;stroke-linejoin:round;stroke-miterlimit:10;}
	.st74{fill:#FA2AAB;}
	.st75{fill:url(#SVGID_00000082344528448502523790000009672763383235004314_);}
	.st76{fill:url(#SVGID_00000156577892557096969880000005091323514405273473_);}
	.st77{fill:url(#SVGID_00000173846410695747941890000010316300172383671993_);}
	.st78{fill:none;stroke:#8251FE;stroke-width:3;stroke-linecap:round;}
	.st79{fill:url(#SVGID_00000102533534896561076070000010923020439363896450_);}
	.st80{fill:none;stroke:#FE7C12;stroke-width:3;stroke-miterlimit:10;}
	.st81{fill:url(#SVGID_00000100360921306150824200000001944679177613917598_);}
	.st82{fill:url(#SVGID_00000105388604619719219820000000855937396946587037_);}
	.st83{fill:url(#SVGID_00000159432191343819639010000011177385014285308073_);}
	.st84{fill:url(#SVGID_00000130648228980549904320000011080932900256344240_);}
	.st85{fill:url(#SVGID_00000153687693253786614970000016863761393931982771_);}
	.st86{fill:url(#SVGID_00000062883987564194658440000002151437235994450322_);}
	.st87{fill:url(#SVGID_00000026142970658450794830000000277368421765633199_);}
	.st88{fill:url(#SVGID_00000002352281642432727400000002579220564764378252_);}
	.st89{fill-rule:evenodd;clip-rule:evenodd;fill:url(#SVGID_00000041280644057381293810000007039736282637307776_);}
	.st90{fill:url(#SVGID_00000004505798052362996510000005721929200578414000_);}
	.st91{fill:url(#SVGID_00000139975831613747354660000008302774941503271055_);}
	.st92{fill:url(#SVGID_00000043444228463497787550000015310687965172315046_);}
	.st93{fill:#808080;}
	.st94{fill:url(#SVGID_00000040546087650915422230000010909732182374059949_);}
	.st95{fill:url(#SVGID_00000108296422379979598380000002315708096790176663_);}
	.st96{fill:url(#SVGID_00000164506543921716444630000016734006409743896219_);}
	.st97{fill:url(#SVGID_00000076595954066282820110000012213655072859172284_);}
	.st98{fill:url(#SVGID_00000091710383971962386460000001971979340677333161_);}
	.st99{fill:url(#SVGID_00000044170764910665306000000004607231345309219491_);}
	.st100{fill:url(#SVGID_00000015355609554947634030000012918888293971658158_);}
	.st101{fill:none;stroke:#10E36C;stroke-width:3;stroke-linecap:round;}
	.st102{fill:url(#SVGID_00000033328451767405304110000016865343681061699766_);}
	.st103{fill:none;stroke:#FAC400;stroke-width:3;stroke-linejoin:round;}
	.st104{fill:none;stroke:#FAC400;stroke-width:3;stroke-linecap:round;stroke-linejoin:round;}
	.st105{fill:none;stroke:#FAC400;stroke-width:3;stroke-linecap:round;stroke-linejoin:round;stroke-miterlimit:10;}
	.st106{fill:url(#SVGID_00000165226367744863404070000005954397108624754870_);}
	.st107{fill:url(#SVGID_00000107557690935274707830000009205700693930533796_);}
	.st108{fill:url(#SVGID_00000019638182255138846150000009243066323663949976_);}
	.st109{fill:none;stroke:#FAC400;stroke-width:3;stroke-miterlimit:10;}
	.st110{fill:none;stroke:#8251FE;stroke-width:3;}
	.st111{fill:url(#SVGID_00000072261267937120848330000009999396740849882299_);}
	.st112{fill:url(#SVGID_00000085952639921432025960000005585079836065981863_);}
	.st113{fill:none;stroke:#2E9BFE;stroke-width:3;stroke-linecap:round;stroke-linejoin:round;stroke-miterlimit:5;}
	.st114{fill:url(#SVGID_00000145776774510215737480000013982649166256923288_);}
	.st115{fill:url(#SVGID_00000059286980205760746740000013432024872862342308_);}
	.st116{fill:url(#SVGID_00000144325502679331849620000010698581410595775673_);}
	.st117{fill:url(#SVGID_00000031178139401785471630000002237241005854672783_);}
	.st118{fill:none;stroke:#2E9BFE;stroke-width:3;stroke-miterlimit:10;}
	.st119{fill:url(#SVGID_00000101812751678423068070000002220923678836103588_);}
	.st120{fill:url(#SVGID_00000083057187762907740500000009046328954728897937_);}
	.st121{fill:url(#SVGID_00000101802948756986696430000016147414666939794058_);}
	.st122{fill:none;stroke:#E02F24;stroke-width:3;stroke-linejoin:round;}
	.st123{fill:url(#SVGID_00000159445109066602756900000008269908759192392629_);}
	.st124{fill:none;stroke:#10CFE3;stroke-width:3;stroke-miterlimit:10;}
	.st125{fill:url(#SVGID_00000000205203473753521060000017775494670870243205_);}
	.st126{fill:url(#SVGID_00000093892295257392572110000011347417949102752146_);}
	.st127{fill:none;stroke:#FE7C12;stroke-width:3;stroke-linecap:round;stroke-linejoin:round;stroke-miterlimit:5;}
	.st128{fill:url(#SVGID_00000057827137407892747160000015023726487760595622_);}
	.st129{fill:none;stroke:#E02F24;stroke-width:3;stroke-linecap:round;}
	.st130{fill:none;stroke:#10CFE3;stroke-width:3;stroke-linecap:round;}
	.st131{fill:url(#SVGID_00000114056430943826433690000003911104594568127896_);}
	.st132{fill:url(#SVGID_00000065755512909100303900000013443901047963488179_);}
	.st133{fill:none;stroke:#2E9BFE;stroke-width:3;}
	.st134{fill:url(#SVGID_00000122000363380933831080000015640335147441359490_);}
	.st135{fill:url(#SVGID_00000174572172263175077830000016693751733658784682_);}
	.st136{fill:url(#SVGID_00000021087859948386971840000006430106381178476710_);}
	.st137{fill:url(#SVGID_00000115497800982161818690000006706764574327544192_);}
	.st138{fill:url(#SVGID_00000018223044706507072860000011121079208261485222_);}
	.st139{fill:none;stroke:#FAC400;stroke-width:3;stroke-linecap:round;}
	.st140{fill:url(#SVGID_00000150097397941270885660000018394337348486948540_);}
	.st141{fill:url(#SVGID_00000078733795382881912160000013291716807647611323_);}
	.st142{fill:url(#SVGID_00000141429522765745215720000007376887374150517904_);}
	.st143{fill:url(#SVGID_00000176012365108484972180000003013592410338028422_);}
	.st144{fill:url(#SVGID_00000098199039662328973060000005300402237425243789_);}
	.st145{fill:none;stroke:#10E36C;stroke-width:3;stroke-linejoin:round;}
	.st146{fill:url(#SVGID_00000010291838787265878180000014178745654251506589_);}
	.st147{fill:url(#SVGID_00000070803679449987007420000015706289560842326939_);}
	.st148{fill:none;stroke:#FE7C12;stroke-width:3;stroke-linejoin:round;stroke-miterlimit:10;}
	.st149{fill:url(#SVGID_00000173150929950463406840000006559946749192394941_);}
	.st150{fill:#FFFFFF;stroke:#FAC400;stroke-width:3;stroke-linejoin:round;}
	.st151{fill:url(#SVGID_00000100367108700556545100000000205053944364081296_);}
	.st152{fill:url(#SVGID_00000137129862425536179900000011025395957424621477_);}
	.st153{fill:url(#SVGID_00000175309123538988505460000001780710273199390355_);}
	.st154{fill:none;stroke:#FA2AAB;stroke-width:4;stroke-linecap:round;}
	.st155{fill:url(#SVGID_00000016066086505729802960000009861393082714875060_);}
	.st156{fill:url(#SVGID_00000002361875706939295070000006431850637311744149_);}
	.st157{fill:#FFFFFF;stroke:#10E36C;stroke-width:3;stroke-linecap:round;stroke-linejoin:round;stroke-miterlimit:10;}
	.st158{fill:url(#SVGID_00000085234514711101141840000011350284301030727814_);}
	.st159{fill:url(#SVGID_00000053524448414051244510000016895068389261619361_);}
	.st160{fill:url(#SVGID_00000093136072471009025550000016085132812170102954_);}
	.st161{fill:url(#SVGID_00000096764797195942766910000009596572743516693634_);}
	.st162{fill:url(#SVGID_00000160910516879904723380000006743552139072738701_);}
	.st163{fill:url(#SVGID_00000049910215376383688280000000647361483118563982_);}
	.st164{fill:url(#SVGID_00000089566763110634114780000001523923285942456485_);}
	.st165{fill:url(#SVGID_00000162354469920768185830000004522929694294605187_);}
	.st166{fill:url(#SVGID_00000101103135859283792740000017216833529182752946_);}
	.st167{fill:url(#SVGID_00000133521232512037646550000013352557887918559648_);}
	.st168{fill:url(#SVGID_00000022533993016351558350000007877553451233734280_);}
	.st169{fill:url(#SVGID_00000114067393568252653850000018321258213768869823_);}
	.st170{fill:url(#SVGID_00000095320866162429606090000012345460927254485410_);}
	.st171{fill:url(#SVGID_00000005954375492447571960000010385583663278784661_);}
	.st172{fill:url(#SVGID_00000080174196365797013940000017796669183088561570_);}
	.st173{fill:none;stroke:#FAC400;stroke-width:3;}
	.st174{fill:url(#SVGID_00000002375216082684765020000000973973668776617663_);}
	.st175{fill:none;stroke:#2E9BFE;stroke-width:3;stroke-linejoin:round;stroke-miterlimit:10;}
	.st176{fill:url(#SVGID_00000061432785556568574210000010976417441349939599_);}
	.st177{fill:url(#SVGID_00000119813354863058709270000002105876985707996295_);}
	.st178{fill:url(#SVGID_00000007427354162767006110000007590946458803324826_);}
	.st179{fill:url(#SVGID_00000128457758178653577150000017246188204578634655_);}
	.st180{fill:url(#SVGID_00000052076276236705771550000008301330061946845096_);}
</style>
<linearGradient id="SVGID_1_" gradientUnits="userSpaceOnUse" x1="39.1025" y1="8.8975" x2="8.8975" y2="39.1025">
	<stop  offset="0" style="stop-color:#6560FE"/>
	<stop  offset="0.0328" style="stop-color:#6F6AFE"/>
	<stop  offset="0.1968" style="stop-color:#9A97FE"/>
	<stop  offset="0.3618" style="stop-color:#BFBDFF"/>
	<stop  offset="0.5254" style="stop-color:#DBDAFF"/>
	<stop  offset="0.6872" style="stop-color:#EFEEFF"/>
	<stop  offset="0.8464" style="stop-color:#FBFBFF"/>
	<stop  offset="1" style="stop-color:#FFFFFF"/>
</linearGradient>
<path class="st0" d="M36.141,40.5H11.859C9.728,40.5,8,38.718,8,36.521V11.479C8,9.282,9.728,7.5,11.859,7.5h24.283
	C38.272,7.5,40,9.282,40,11.479v25.042C40,38.718,38.272,40.5,36.141,40.5z"/>
<path class="st41" d="M27.348,16.209c0.128-0.077,0.261-0.159,0.4-0.231c0.359-0.184,0.758-0.277,1.164-0.257
	c0.292,0.016,0.559,0.097,0.764,0.312c0.195,0.2,0.267,0.446,0.287,0.712c0.005,0.057,0.005,0.113,0.005,0.174v2.655
	c0,0.231-0.031,0.261-0.261,0.261h-0.625c-0.041,0-0.082,0-0.123-0.005c-0.061-0.005-0.113-0.057-0.123-0.118
	c-0.011-0.057-0.011-0.112-0.011-0.169v-2.374c0.005-0.097-0.005-0.189-0.031-0.282c-0.041-0.159-0.184-0.272-0.348-0.282
	c-0.302-0.02-0.605,0.041-0.882,0.169c-0.041,0.011-0.067,0.052-0.061,0.093v2.697c0,0.052,0,0.098-0.011,0.148
	c0,0.072-0.057,0.123-0.128,0.123l0,0c-0.077,0.005-0.153,0.005-0.236,0.005h-0.543c-0.189,0-0.231-0.047-0.231-0.236v-2.425
	c0-0.087-0.005-0.18-0.025-0.267c-0.036-0.174-0.184-0.298-0.359-0.308c-0.307-0.02-0.62,0.041-0.897,0.174
	c-0.041,0.011-0.067,0.057-0.057,0.097v2.733c0,0.189-0.041,0.231-0.231,0.231h-0.688c-0.18,0-0.225-0.052-0.225-0.225v-3.558
	c0-0.041,0.005-0.082,0.016-0.123c0.02-0.061,0.082-0.097,0.143-0.097h0.641c0.092,0,0.148,0.057,0.18,0.143
	c0.025,0.072,0.041,0.139,0.067,0.216c0.052,0,0.082-0.036,0.118-0.057c0.282-0.174,0.579-0.323,0.912-0.384
	c0.257-0.052,0.513-0.052,0.769,0c0.241,0.052,0.457,0.195,0.595,0.4c0.011,0.016,0.02,0.025,0.031,0.036
	C27.338,16.198,27.343,16.198,27.348,16.209z M19.772,16.404c0.036-0.011,0.067-0.031,0.087-0.061
	c0.093-0.093,0.189-0.18,0.292-0.261c0.267-0.205,0.6-0.307,0.933-0.282c0.133,0.005,0.18,0.047,0.189,0.174
	c0.011,0.174,0.005,0.353,0.005,0.528c0.005,0.072,0,0.139-0.011,0.21c-0.02,0.093-0.057,0.128-0.148,0.139
	c-0.072,0.005-0.139,0-0.21-0.005c-0.343-0.031-0.677,0.036-1,0.143c-0.072,0.025-0.072,0.077-0.072,0.133v2.459
	c0,0.047,0,0.087-0.005,0.133c-0.005,0.067-0.057,0.118-0.123,0.118c-0.036,0.005-0.077,0.005-0.112,0.005H18.93
	c-0.036,0-0.077,0-0.113-0.005c-0.067-0.005-0.118-0.061-0.123-0.128c-0.005-0.041-0.005-0.082-0.005-0.123v-3.487
	c0-0.236,0.025-0.261,0.261-0.261h0.492c0.133,0,0.195,0.047,0.231,0.174C19.71,16.137,19.741,16.266,19.772,16.404z M21.771,17.829
	v-1.82c0.005-0.123,0.052-0.169,0.174-0.174c0.267-0.005,0.533-0.005,0.8,0c0.118,0,0.153,0.036,0.164,0.153
	c0.005,0.047,0.005,0.087,0.005,0.133v3.414c0,0.057-0.005,0.112-0.011,0.169c-0.005,0.067-0.057,0.113-0.123,0.118
	c-0.031,0.005-0.057,0.005-0.087,0.005H21.98c-0.025,0-0.047,0-0.072-0.005c-0.072-0.005-0.133-0.061-0.139-0.133
	c-0.005-0.041-0.005-0.082-0.005-0.123C21.771,18.997,21.771,18.413,21.771,17.829z M22.366,13.999
	c0.082-0.005,0.164,0.011,0.241,0.036c0.277,0.092,0.42,0.333,0.395,0.646c-0.02,0.267-0.22,0.482-0.487,0.523
	c-0.113,0.02-0.231,0.02-0.343,0c-0.292-0.057-0.507-0.272-0.487-0.641C21.714,14.199,21.955,13.999,22.366,13.999z M17.931,17.409
	c-0.02-0.267-0.092-0.528-0.2-0.769c-0.21-0.441-0.533-0.764-1.025-0.877c-0.564-0.123-1.072,0-1.533,0.343
	c-0.031,0.031-0.067,0.057-0.108,0.077c-0.011-0.005-0.02-0.011-0.02-0.016c-0.016-0.052-0.025-0.103-0.041-0.153
	c-0.041-0.128-0.092-0.174-0.231-0.174c-0.153,0-0.312,0.005-0.467,0c-0.118-0.005-0.225,0.011-0.308,0.102
	c0,1.794,0,3.594,0.005,5.382c0.067,0.108,0.169,0.128,0.287,0.123c0.184-0.005,0.369,0,0.553,0c0.323,0,0.323,0,0.323-0.318V19.67
	c0-0.036-0.016-0.077,0.02-0.107c0.257,0.2,0.569,0.323,0.892,0.353c0.452,0.047,0.861-0.067,1.205-0.374
	c0.252-0.231,0.436-0.528,0.533-0.857C17.958,18.265,17.967,17.839,17.931,17.409z M16.706,18.47
	c-0.036,0.159-0.118,0.302-0.236,0.41c-0.133,0.112-0.298,0.18-0.472,0.18c-0.261,0.016-0.517-0.041-0.748-0.164
	c-0.057-0.025-0.092-0.082-0.087-0.143v-0.928c0-0.307,0.005-0.616,0-0.923c-0.005-0.072,0.036-0.133,0.102-0.159
	c0.282-0.133,0.574-0.195,0.882-0.133c0.216,0.031,0.4,0.169,0.487,0.369c0.077,0.164,0.123,0.343,0.133,0.523
	C16.798,17.829,16.798,18.158,16.706,18.47z M31.84,18.163c0.384,0.072,0.779,0.077,1.164,0.016
	c0.225-0.031,0.441-0.097,0.641-0.205c0.231-0.133,0.4-0.318,0.472-0.574c0.18-0.646-0.097-1.297-0.769-1.537
	c-0.328-0.107-0.677-0.143-1.02-0.097c-0.81,0.093-1.337,0.538-1.578,1.313c-0.169,0.528-0.148,1.066-0.011,1.599
	c0.18,0.682,0.631,1.087,1.312,1.23c0.389,0.087,0.784,0.072,1.174,0.011c0.205-0.036,0.41-0.088,0.605-0.164
	c0.117-0.047,0.18-0.118,0.174-0.252c-0.005-0.123,0-0.252,0-0.379c0-0.153-0.061-0.2-0.21-0.164
	c-0.149,0.036-0.292,0.067-0.441,0.097c-0.318,0.067-0.646,0.067-0.964,0.011c-0.436-0.087-0.718-0.461-0.693-0.923
	C31.743,18.147,31.793,18.152,31.84,18.163z M31.712,17.378c0.016-0.123,0.052-0.241,0.097-0.353
	c0.153-0.374,0.477-0.503,0.805-0.482c0.093,0.005,0.184,0.025,0.272,0.061c0.133,0.057,0.22,0.18,0.236,0.323
	c0.016,0.087,0.011,0.18-0.016,0.267c-0.061,0.184-0.21,0.261-0.389,0.298c-0.107,0.025-0.22,0.036-0.333,0.025
	c-0.2,0-0.405-0.016-0.605-0.047C31.701,17.46,31.701,17.46,31.712,17.378z"/>
<path class="st41" d="M15.935,26.639c0.033-0.11,0.066-0.215,0.099-0.324c0.253-0.853,0.506-1.699,0.758-2.552l0.032-0.099
	c0.028-0.099,0.121-0.16,0.22-0.16h0.837c0.209,0,0.252,0.061,0.182,0.259l-0.33,0.874c-0.368,0.957-0.738,1.92-1.106,2.877
	c-0.011,0.032-0.028,0.066-0.039,0.099c-0.039,0.116-0.153,0.193-0.275,0.182c-0.242-0.005-0.484-0.005-0.726,0
	c-0.171,0.005-0.269-0.072-0.33-0.225c-0.137-0.363-0.281-0.732-0.418-1.094c-0.33-0.864-0.666-1.727-0.996-2.597
	c-0.033-0.066-0.055-0.143-0.072-0.215c-0.017-0.11,0.022-0.165,0.132-0.165c0.313-0.005,0.628,0,0.935,0
	c0.132,0,0.193,0.088,0.225,0.203c0.061,0.209,0.121,0.424,0.188,0.633c0.225,0.765,0.445,1.535,0.672,2.299
	C15.918,26.639,15.924,26.639,15.935,26.639z M19.83,25.649v1.98c-0.011,0.11-0.061,0.16-0.171,0.165
	c-0.297,0.005-0.588,0.005-0.886,0c-0.11,0-0.16-0.055-0.171-0.16c-0.005-0.032-0.005-0.072-0.005-0.104v-3.807
	c0.005-0.171,0.049-0.22,0.22-0.22h0.792c0.171,0,0.22,0.049,0.22,0.22L19.83,25.649L19.83,25.649z M19.219,21.528
	c0.11-0.011,0.22,0.011,0.324,0.055c0.215,0.083,0.363,0.281,0.374,0.512c0.044,0.501-0.292,0.753-0.737,0.743
	c-0.061,0-0.121-0.011-0.182-0.022c-0.341-0.083-0.517-0.347-0.484-0.726c0.028-0.303,0.264-0.528,0.588-0.556
	C19.142,21.528,19.181,21.523,19.219,21.528z M34.225,25.33c0.005-0.062-0.017-0.192-0.017-0.197
	c-0.011-0.104-0.033-0.209-0.061-0.308c-0.203-0.726-0.66-1.205-1.403-1.392c-0.347-0.083-0.698-0.093-1.051-0.039
	c-0.742,0.11-1.277,0.506-1.535,1.21c-0.253,0.672-0.248,1.408,0.005,2.079c0.22,0.61,0.66,0.996,1.293,1.155
	c0.336,0.083,0.687,0.104,1.034,0.055c1.155-0.138,1.634-1.013,1.711-1.771c0,0,0.028-0.228,0.028-0.332L34.225,25.33z
	 M32.905,26.353c-0.033,0.116-0.082,0.22-0.153,0.319c-0.121,0.171-0.313,0.281-0.522,0.297c-0.104,0.011-0.209,0.011-0.313-0.011
	c-0.232-0.044-0.424-0.198-0.517-0.413c-0.083-0.171-0.132-0.358-0.148-0.545c-0.028-0.324-0.033-0.649,0.044-0.968
	c0.028-0.127,0.083-0.252,0.148-0.363c0.121-0.197,0.33-0.324,0.561-0.341c0.104-0.011,0.209-0.011,0.313,0.011
	c0.22,0.044,0.402,0.188,0.501,0.39c0.093,0.193,0.148,0.407,0.16,0.622c0.005,0.099,0.011,0.198,0.005,0.297
	C32.998,25.891,32.971,26.127,32.905,26.353z M24.583,21.567h-0.765c-0.209,0-0.248,0.039-0.248,0.248v1.782
	c0,0.039,0.017,0.077-0.011,0.116c-0.049-0.005-0.077-0.039-0.116-0.061c-0.573-0.336-1.172-0.396-1.778-0.116
	c-0.424,0.198-0.688,0.556-0.858,0.979c-0.165,0.407-0.203,0.837-0.193,1.271c0,0.407,0.093,0.808,0.275,1.172
	c0.209,0.402,0.512,0.709,0.952,0.842c0.6,0.188,1.161,0.093,1.672-0.286c0.039-0.022,0.061-0.061,0.11-0.072
	c0.028,0.061,0.049,0.127,0.061,0.193c0.022,0.088,0.099,0.148,0.193,0.148h0.132c0.198,0,0.39,0.005,0.583,0
	c0.153,0,0.198-0.049,0.203-0.209v-5.797C24.791,21.606,24.747,21.567,24.583,21.567z M23.576,25.616v1.001
	c0.011,0.066-0.028,0.127-0.088,0.153c-0.264,0.148-0.567,0.209-0.864,0.165c-0.252-0.028-0.473-0.182-0.588-0.407
	c-0.088-0.176-0.138-0.363-0.153-0.556c-0.044-0.347-0.017-0.698,0.066-1.034c0.028-0.093,0.061-0.182,0.11-0.269
	c0.116-0.215,0.336-0.352,0.578-0.368c0.292-0.028,0.583,0.028,0.847,0.148c0.066,0.022,0.104,0.088,0.099,0.16
	C23.57,24.95,23.576,25.281,23.576,25.616L23.576,25.616z M27.904,26.051c0.319-0.022,0.637-0.083,0.924-0.237
	c0.292-0.143,0.495-0.413,0.556-0.732c0.039-0.198,0.039-0.408-0.005-0.605c-0.116-0.495-0.429-0.802-0.902-0.963
	c-0.264-0.083-0.545-0.116-0.82-0.104c-0.924,0.022-1.627,0.489-1.914,1.414c-0.193,0.61-0.165,1.232,0.022,1.842
	c0.192,0.628,0.632,1.007,1.259,1.178c0.269,0.066,0.55,0.093,0.825,0.083c0.402-0.005,0.802-0.083,1.183-0.225
	c0.16-0.061,0.197-0.116,0.197-0.286V27.02c-0.005-0.16-0.072-0.215-0.232-0.176c-0.121,0.032-0.237,0.061-0.358,0.088
	c-0.368,0.088-0.753,0.104-1.128,0.039c-0.374-0.072-0.628-0.286-0.726-0.66c-0.028-0.11-0.049-0.22-0.061-0.336
	c0.028,0,0.055,0,0.077,0.011C27.167,26.051,27.536,26.078,27.904,26.051z M26.755,25.17c0.039-0.215,0.088-0.424,0.22-0.6
	c0.203-0.269,0.484-0.347,0.802-0.313c0.028,0,0.049,0.011,0.077,0.011c0.385,0.061,0.478,0.368,0.408,0.666
	c-0.055,0.22-0.237,0.302-0.44,0.341c-0.11,0.022-0.225,0.032-0.341,0.028c-0.225-0.005-0.445-0.022-0.666-0.055
	C26.766,25.242,26.744,25.22,26.755,25.17L26.755,25.17z"/>
<path class="st41" d="M24.312,33.998c-0.192-0.005-0.386-0.005-0.577,0c-0.265-0.014-0.53-0.024-0.795-0.043
	c-0.703-0.053-1.403-0.159-2.086-0.318c-2.366-0.549-4.442-1.653-6.254-3.257c-0.169-0.15-0.327-0.303-0.492-0.458
	c-0.038-0.034-0.073-0.083-0.092-0.13c-0.029-0.067-0.014-0.14,0.034-0.192s0.126-0.073,0.193-0.043
	c0.043,0.019,0.087,0.038,0.126,0.062c1.73,1.07,3.618,1.85,5.598,2.312c0.665,0.154,1.334,0.274,2.009,0.362
	c0.968,0.121,1.946,0.164,2.919,0.13c0.525-0.014,1.046-0.062,1.566-0.13c1.214-0.154,2.414-0.429,3.575-0.814
	c0.612-0.202,1.209-0.434,1.793-0.703c0.087-0.048,0.192-0.062,0.289-0.038c0.159,0.038,0.255,0.202,0.217,0.362
	c-0.005,0.019-0.014,0.043-0.024,0.063c-0.038,0.073-0.092,0.135-0.159,0.183C31.598,31.78,31,32.16,30.369,32.478
	c-1.19,0.602-2.462,1.031-3.773,1.277C25.839,33.888,25.078,33.969,24.312,33.998z M32.594,29.301
	c0.318,0.01,0.631,0.029,0.939,0.111c0.087,0.024,0.169,0.053,0.25,0.092c0.111,0.043,0.182,0.15,0.197,0.265
	c0.019,0.135,0.024,0.274,0.014,0.414c-0.062,0.824-0.318,1.618-0.742,2.327c-0.154,0.255-0.342,0.487-0.558,0.689
	c-0.043,0.043-0.097,0.077-0.154,0.097c-0.092,0.024-0.15-0.024-0.154-0.116c0.005-0.048,0.014-0.097,0.034-0.145
	c0.169-0.453,0.332-0.901,0.462-1.368c0.077-0.255,0.13-0.515,0.164-0.781c0.01-0.097,0.014-0.192,0.005-0.289
	c-0.005-0.164-0.111-0.303-0.27-0.352c-0.15-0.048-0.303-0.077-0.463-0.087c-0.443-0.019-0.886,0-1.325,0.058l-0.582,0.073
	c-0.063,0.005-0.121,0-0.154-0.058c-0.034-0.058-0.019-0.116,0.014-0.173c0.038-0.053,0.087-0.102,0.145-0.135
	c0.357-0.255,0.757-0.41,1.181-0.511C31.924,29.343,32.257,29.311,32.594,29.301z"/>
<path class="st14" d="M25.362,40.5H11.5c-2.209,0-4-1.791-4-4v-25c0-2.209,1.791-4,4-4h1.415"/>
<path class="st14" d="M18.689,7.5H36.5c2.209,0,4,1.791,4,4v25c0,2.209-1.791,4-4,4h-2.968"/>
</svg>